<svg xmlns="http://www.w3.org/2000/svg" viewBox="-3687 -525 23.3 19.4">
  <defs>
    <style>
      .cls-1 {
        fill: #4f453c;
      }
    </style>
  </defs>
  <g id="Group_1494" data-name="Group 1494" transform="translate(-3687 -525)">
    <path id="Path_615" data-name="Path 615" class="cls-1" d="M14,5.5A5.5,5.5,0,1,0,19.6,11,5.7,5.7,0,0,0,14,5.5Zm0,9.9a4.5,4.5,0,1,1,4.5-4.5A4.481,4.481,0,0,1,14,15.4Z"/>
    <path id="Path_616" data-name="Path 616" class="cls-1" d="M20.9,2.5H19.6L17.9.4a.812.812,0,0,0-.8-.4H10.8a.909.909,0,0,0-.8.4L8.4,2.5h-6A2.433,2.433,0,0,0,0,4.9V17a2.433,2.433,0,0,0,2.4,2.4H20.9A2.433,2.433,0,0,0,23.3,17V4.9A2.433,2.433,0,0,0,20.9,2.5ZM5.9,17.4H2.4A.43.43,0,0,1,2,17V4.9a.43.43,0,0,1,.4-.4H5.9ZM21.3,17a.43.43,0,0,1-.4.4H6.9V4.5h2a.909.909,0,0,0,.8-.4L11.4,2h5.3l1.7,2.1a1.234,1.234,0,0,0,.8.4H21a.43.43,0,0,1,.4.4V17Z"/>
  </g>
</svg>
